<svg width="108" height="108" viewBox="0 0 108 108" fill="none" xmlns="http://www.w3.org/2000/svg">
<rect width="108" height="108" transform="translate(108 108) rotate(-180)" fill="white"/>
<rect x="50" y="100" width="17" height="17" rx="8.5" transform="rotate(-180 50 100)" fill="#F2F5F9" fill-opacity="0.5"/>
<rect x="25" y="100" width="17" height="17" rx="8.5" transform="rotate(-180 25 100)" fill="#F2F5F9"/>
<rect x="100" y="75" width="17" height="17" rx="8.5" transform="rotate(-180 100 75)" fill="#F2F5F9"/>
<rect x="75" y="50" width="17" height="17" rx="8.5" transform="rotate(-180 75 50)" fill="#F2F5F9" fill-opacity="0.5"/>
<rect x="50" y="50" width="17" height="17" rx="8.5" transform="rotate(-180 50 50)" fill="#F2F5F9"/>
<rect x="75" y="25" width="17" height="17" rx="8.5" transform="rotate(-180 75 25)" fill="#F2F5F9" fill-opacity="0.5"/>
<rect x="25" y="25" width="17" height="17" rx="8.5" transform="rotate(-180 25 25)" fill="#F2F5F9"/>
</svg>
