<svg width="108" height="108" viewBox="0 0 108 108" fill="none" xmlns="http://www.w3.org/2000/svg">
<rect width="108" height="108" fill="white"/>
<rect x="4" y="15.3703" width="16.08" height="16.08" rx="6" transform="rotate(-45 4 15.3703)" fill="#F2F5F9"/>
<rect x="55.4811" y="15.3703" width="16.08" height="16.08" rx="6" transform="rotate(-45 55.4811 15.3703)" fill="#F2F5F9" fill-opacity="0.5"/>
<rect x="29.7406" y="41.1108" width="16.08" height="16.08" rx="6" transform="rotate(-45 29.7406 41.1108)" fill="#F2F5F9"/>
<rect x="55.4811" y="41.1108" width="16.08" height="16.08" rx="6" transform="rotate(-45 55.4811 41.1108)" fill="#F2F5F9" fill-opacity="0.5"/>
<rect x="81.2216" y="66.8514" width="16.08" height="16.08" rx="6" transform="rotate(-45 81.2216 66.8514)" fill="#F2F5F9" fill-opacity="0.5"/>
<rect x="4" y="92.5919" width="16.08" height="16.08" rx="6" transform="rotate(-45 4 92.5919)" fill="#F2F5F9"/>
<rect x="29.7406" y="92.5919" width="16.08" height="16.08" rx="6" transform="rotate(-45 29.7406 92.5919)" fill="#F2F5F9" fill-opacity="0.5"/>
</svg>
